<svg width="199" height="200" viewBox="0 0 199 200" xmlns="http://www.w3.org/2000/svg" xmlns:sketch="http://www.bohemiancoding.com/sketch/ns"><title>sign</title><g sketch:type="MSPage" fill="#7ED321"><path d="M110 10h-20v76.567l-.605-.605-62.933 62.933 14.142 14.142 49.395-49.395v76.358h20v-76.358l49.395 49.395 14.142-14.142-62.933-62.933-.605.605v-76.567z" sketch:type="MSShapeGroup"/><path d="M99.5 0c-54.965 0-99.5 44.784-99.5 100s44.535 100 99.5 100 99.5-44.784 99.5-100-44.535-100-99.5-100zm0 20c43.894 0 79.5 35.805 79.5 80s-35.606 80-79.5 80-79.5-35.805-79.5-80 35.606-80 79.5-80z" sketch:type="MSShapeGroup"/></g></svg>